<?xml version="1.0" encoding="utf-8"?>
<svg version="1.1" id="Livello_1" xmlns="http://www.w3.org/2000/svg" xmlns:xlink="http://www.w3.org/1999/xlink" x="0px" y="0px"
	 viewBox="0 0 298.5 50.6" enable-background="new 0 0 298.5 50.6" xml:space="preserve">
<g>
	<path class="the_logo" d="M298.5,4.4c0-2.1-1.7-3.8-3.8-3.8c-2.1,0-3.8,1.7-3.8,3.8c0,2.1,1.7,3.8,3.8,3.8
		C296.8,8.2,298.5,6.5,298.5,4.4L298.5,4.4z M286.5,37.7V20.4h-6v17.3c0,4.5-2.8,7.6-6.9,7.6c-4.2,0-7-3.1-7-7.6V20.4h-6.2v17.3
		c0,7.7,5.3,13,13,13C281.2,50.6,286.5,45.4,286.5,37.7L286.5,37.7z M251.8,50.4c0.8,0,2.1-0.1,2.7-0.3v-4c-2.2,0-3.6-1.2-3.6-3.3
		V0.5h-6V43C244.8,47.5,247.4,50.4,251.8,50.4L251.8,50.4z M237.7,35.2c0-9.2-5.9-15.4-14.6-15.4c-3,0-5.8,0.8-7.9,2.2V0.5h-6v44.8
		c2.6,3.4,7.3,5.3,12.8,5.3C231.3,50.6,237.7,44.4,237.7,35.2L237.7,35.2z M231.4,35.2c0,6-3.8,10-9.3,10c-2.8,0-5.4-0.8-6.9-2.1
		V28.2c1.6-1.9,4-3,7-3C227.6,25.3,231.4,29.3,231.4,35.2L231.4,35.2z M199.7,50.4c0.8,0,1.7-0.1,2.2-0.3v-4c-1.3,0-2.2-0.9-2.2-2.4
		v-14c0-5.3-3.9-9.9-11-9.9c-4,0-7.4,1.5-9.9,4l3.3,3.2c1.3-1.4,3.9-2.3,6.1-2.3c3.8,0,5.4,2.7,5.4,5v2.9c-0.5-0.1-1.1-0.1-2.1-0.1
		c-7.7,0-14.2,3.4-14.2,9.8c0,4.2,2.8,8.3,8.6,8.3c3.1,0,6.1-1.3,8.3-3.4C195.1,49.2,197,50.4,199.7,50.4L199.7,50.4z M193.6,43.2
		c-1.5,1.7-3.9,2.5-5.8,2.5c-3.4,0-4.5-2.3-4.5-4c0-3.2,3.7-5.1,8.5-5.1c0.8,0,1.3,0.1,1.8,0.2V43.2L193.6,43.2z M152.3,35.2
		c0-6,3.8-10,9.4-10c3,0,5.4,1.1,7,2.8l3.7-3.8c-2.7-2.8-6.5-4.5-11-4.5c-9.1,0-15.3,6.2-15.3,15.4c0,9.2,6.2,15.4,15.3,15.4
		c4.6,0,8.3-1.6,11-4.4l-3.7-3.8c-1.6,1.8-4,2.8-7,2.8C156.1,45.3,152.3,41.2,152.3,35.2L152.3,35.2z M132.8,50.1h6V20.4h-6V50.1
		L132.8,50.1z M118.1,50.1h6V30.5c0-6.3-3.6-10.6-9.3-10.6c-4.1,0-7.6,1.5-10.1,4c-1.7-2.5-4.3-4-7.7-4c-3.2,0-6.1,1-8.4,2.8v-2.3
		h-6v29.8h6V28c1.6-1.7,4-2.7,6.9-2.7c2.9,0,4.8,2.1,4.8,5.2v19.6h6.1V30.5c0-1-0.1-1.9-0.3-2.8c1.7-1.5,4.2-2.4,7.1-2.4
		c2.8,0,4.8,2.1,4.8,5.2V50.1L118.1,50.1z M72.9,25.1c0.8,0,1.6,0.1,2.3,0.3v-5.3c-0.7-0.1-1.2-0.2-1.9-0.2c-2.9,0-5.6,1.5-7.7,3.8
		v-3.3h-6v29.8h6V29C67.3,26.6,69.9,25.1,72.9,25.1L72.9,25.1z M52.6,35.2c0-9.2-6.2-15.4-15.5-15.4S21.6,26,21.6,35.2
		c0,9.2,6.3,15.4,15.5,15.4S52.6,44.4,52.6,35.2L52.6,35.2z M46.3,35.2c0,6-3.8,10-9.3,10s-9.3-4.1-9.3-10c0-6,3.8-10,9.3-10
		S46.3,29.3,46.3,35.2L46.3,35.2z M10.2,25.1h7.9v-4.8h-7.9v-9.7c0-3.2,2.1-5.5,5.4-5.5c0.9,0,1.8,0.2,2.5,0.6V0.7
		C17,0.1,15.7,0,14.5,0C8,0,4,4.2,4,10.6v9.7H0v4.8h4v25h6.3V25.1L10.2,25.1z"/>
</g>
</svg>
